<?xml version="1.0" ?><!DOCTYPE svg  PUBLIC '-//W3C//DTD SVG 1.1//EN'  'http://www.w3.org/Graphics/SVG/1.1/DTD/svg11.dtd'><svg enable-background="new 0 0 1024 1024" height="1024px" id="Layer_1" version="1.1" viewBox="0 0 1024 1024" width="1024px" xml:space="preserve" xmlns="http://www.w3.org/2000/svg" xmlns:xlink="http://www.w3.org/1999/xlink"><g id="Background"><path d="M983.766,312.727c-25.785-60.972-62.694-115.728-109.705-162.744   C827.05,102.966,772.299,66.049,711.329,40.257C648.194,13.548,581.14,0.004,512,0c-69.104,0-136.155,13.54-199.289,40.243   c-60.969,25.787-115.721,62.699-162.735,109.71c-47.014,47.011-83.929,101.761-109.72,162.728   C13.548,375.814,0.004,442.865,0,511.97c-0.004,69.109,13.533,136.165,40.234,199.304   c25.785,60.973,62.696,115.728,109.707,162.743c47.011,47.018,101.762,83.935,162.732,109.727   c63.136,26.708,130.19,40.253,199.323,40.257h0.009c69.104,0,136.153-13.54,199.288-40.243   c60.969-25.787,115.72-62.699,162.733-109.709c47.013-47.01,83.929-101.76,109.72-162.728   c26.708-63.134,40.251-130.186,40.255-199.29C1024.004,442.921,1010.467,375.866,983.766,312.727z M512.004,976.328h-0.03   c-124.026-0.007-240.627-48.313-328.323-136.019C95.957,752.604,47.665,635.999,47.672,511.973   c0.015-256.016,208.312-464.3,464.356-464.3c124.026,0.007,240.626,48.312,328.32,136.017   c87.695,87.706,135.986,204.311,135.979,328.337C976.313,768.043,768.018,976.328,512.004,976.328z" fill="#262626"/></g><g id="_x35_00px"><path d="M784.477,444.115c-7.048-2.508-14.341-4.23-21.761-5.198   c-8.079-1.054-15.983-1.014-24.103-0.105c-18.896,2.117-36.409,8.843-52.412,19.054c-6.228,3.974-12.193,8.342-18.023,12.874   c-10.109,7.858-18.979,15.483-27.581,24.974c-1.318,1.457-17.71,18.271-16.764,19.537c-18.934-25.338-43.641-47.362-71.007-63.148   c-21.256-12.262-45.417-16.413-69.588-12.536c-25.383,4.068-49.726,15.347-66.708,34.969c-4.353,5.027-8.382,10.544-11.856,16.218   c-3.264,5.329-6.243,10.831-9.131,16.371c0,0-19.438-50.182-79.514-55.482c0,0-52.303-4.417-74.567,24.914l12.722-75.449h133.229   v-53.362h-180.23L175.025,525.5h59.016c0,0,13.429-28.271,55.482-25.444c0,0,26.151,2.121,37.459,20.144   c0,0,16.609,19.084,12.722,51.243c0,0-1.061,21.203-20.851,38.873c-6.58,5.875-15.312,11.046-23.99,12.804   c-6.207,1.257-12.682,1.438-18.976,0.731c-4.556-0.512-9.036-1.66-13.227-3.529c-6.526-2.911-11.863-6.9-16.646-12.12   c-4.956-5.407-8.349-11.605-11.162-18.352c-0.949-2.276-1.788-4.598-2.484-6.965c-0.197-0.67-1.697-7.554-1.864-7.556   c0,0-65.362-0.707-65.377-0.707c-0.499-0.006-0.242,5.208-0.219,5.503c0.357,4.554,1.17,9.095,2.042,13.573   c1.333,6.85,3.037,13.667,5.664,20.145c7.247,17.868,22.713,32.373,38.527,42.835c4.477,2.962,9.233,5.641,14.083,7.943   c13.843,6.579,27.975,9.707,43.156,10.93c17.148,1.38,34.815,0.981,51.552-3.326c10.503-2.705,20.625-6.735,29.667-12.789   c0,0,33.837-22.528,46.294-53.009c0,0,24.119,64.406,93.825,67.586c0,0,40.11,4.505,77.218-19.524c0,0,12.367-7.774,30.744-25.444   c0,0,22.615-24.029,25.091-26.857c21.72,25.441,50.438,51.113,81.418,64.222c26.537,11.229,59.495,10.145,86.384,0.104   c37.044-13.83,62.063-50.037,67.239-88.607C865.487,520.712,840.677,464.108,784.477,444.115z M557.837,585.751   c-13.813,12.242-35.856,23.183-54.428,24.366c-17.668,1.127-38.705-7.268-47.772-23.116c-3.379-5.906-5.329-12.699-6.369-19.396   c-1.476-9.503-1.313-19.605,1.664-28.829c3.26-10.096,9.799-20.383,17.823-27.318c1.844-1.594,3.757-3.179,5.859-4.424   c20.143-11.927,47.441,0,47.441,0c23.854,9.806,62.814,50.624,62.814,50.624C578.774,567.198,557.837,585.751,557.837,585.751z    M798.042,574.854c-3.258,10.096-9.798,20.383-17.823,27.318c-1.844,1.595-3.755,3.179-5.855,4.425   c-20.146,11.928-47.443,0-47.443,0c-23.854-9.806-62.816-50.624-62.816-50.624c6.097-9.542,27.035-28.095,27.035-28.095   c13.815-12.242,35.857-23.181,54.428-24.365c17.669-1.127,38.703,7.267,47.771,23.115c3.38,5.907,5.33,12.699,6.369,19.396   C801.183,555.529,801.021,565.633,798.042,574.854z" fill="#262626" id="_x35_00px_1_"/></g></svg>